<?xml version="1.0" standalone="no"?>
<!DOCTYPE svg PUBLIC "-//W3C//DTD SVG 20010904//EN"
 "http://www.w3.org/TR/2001/REC-SVG-20010904/DTD/svg10.dtd">
<svg version="1.0" xmlns="http://www.w3.org/2000/svg"
 width="700.000000pt" height="700.000000pt" viewBox="0 0 700.000000 700.000000"
 preserveAspectRatio="xMidYMid meet">
<metadata>
Created by potrace 1.14, written by Peter Selinger 2001-2017
</metadata>
<g transform="translate(0.000000,700.000000) scale(0.100000,-0.100000)"
fill="#000000" stroke="none">
<path d="M9 6995 c-1 0 -3 -1572 -4 -3492 l-1 -3493 125 0 c230 0 544 46 796
117 968 270 1760 921 2205 1811 70 140 165 362 175 409 2 10 13 43 24 73 18
52 77 264 86 313 3 12 11 56 20 97 8 41 17 89 19 105 2 17 7 48 11 70 15 98
28 231 29 297 0 39 9 43 12 5 9 -123 15 -196 18 -217 3 -14 7 -48 10 -77 3
-29 10 -74 16 -100 5 -26 12 -64 14 -84 10 -71 85 -346 129 -474 210 -612 602
-1168 1114 -1580 91 -73 339 -245 422 -293 69 -40 105 -59 203 -108 115 -58
286 -134 301 -134 5 0 23 -7 40 -15 58 -26 237 -83 347 -110 84 -20 160 -38
180 -41 14 -2 45 -8 70 -14 45 -9 147 -25 230 -35 25 -4 123 -9 218 -12 l172
-6 1 24 c0 31 0 6836 0 6910 l-1 55 -87 -2 c-97 -2 -256 -12 -294 -19 -13 -2
-51 -7 -84 -10 -33 -3 -67 -8 -75 -10 -8 -2 -31 -7 -50 -10 -185 -26 -459
-103 -685 -192 -131 -52 -346 -153 -425 -201 -19 -12 -44 -26 -55 -31 -11 -5
-83 -50 -160 -101 -236 -156 -458 -344 -645 -546 -473 -511 -793 -1177 -890
-1849 -6 -44 -13 -91 -16 -105 -5 -30 -17 -182 -18 -227 -1 -58 -13 -25 -15
41 -1 36 -4 73 -5 83 -2 10 -7 50 -10 88 -4 39 -9 77 -11 85 -2 8 -7 38 -11
65 -3 28 -7 57 -9 65 -4 33 -28 140 -52 235 -92 371 -259 749 -471 1070 -57
84 -211 292 -246 332 -115 127 -250 265 -321 330 -363 328 -775 571 -1235 727
-122 41 -284 86 -363 101 -15 3 -58 12 -95 19 -37 8 -107 19 -157 26 -49 6
-101 13 -115 16 -44 7 -369 24 -381 19z"/>
</g>
</svg>
